<svg xmlns="http://www.w3.org/2000/svg" viewBox="0 0 100 100">
  <rect width="100" height="100" rx="20" fill="#1B2838"/>
  <!-- Controller body -->
  <path d="M15 44 C15 33 24 26 36 26 L64 26 C76 26 85 33 85 44 L83 61 C81 71 73 77 64 77 L57 77 L53 69 L47 69 L43 77 L36 77 C27 77 19 71 17 61 Z" fill="#2A475E" stroke="#66C0F4" stroke-width="1.5"/>
  <!-- D-pad vertical -->
  <rect x="30" y="43" width="5" height="15" rx="2.5" fill="#66C0F4"/>
  <!-- D-pad horizontal -->
  <rect x="25" y="48" width="15" height="5" rx="2.5" fill="#66C0F4"/>
  <!-- Buttons -->
  <circle cx="63" cy="42" r="4" fill="#4CAF50"/>
  <circle cx="72" cy="50" r="4" fill="#E53935"/>
  <circle cx="54" cy="50" r="4" fill="#66C0F4"/>
  <circle cx="63" cy="58" r="4" fill="#FFA726"/>
  <!-- Menu buttons -->
  <rect x="43" y="46" width="5" height="3" rx="1.5" fill="#8BA0B4"/>
  <rect x="52" y="46" width="5" height="3" rx="1.5" fill="#8BA0B4"/>
</svg>
